Coordinates
version=1
nRows=9
nColumns=24
inDegrees=yes

Units are S.I. units (second, meters, Newtons, ...)
Angles are in degrees.

endheader
time	torso_tilt	torso_list	torso_rotation	torso_tx	torso_ty	torso_tz	lumbar_extension	lumbar_bending	lumbar_rotation	hip_flexion_r	hip_adduction_r	hip_rotation_r	knee_angle_r	ankle_angle_r	subtalar_angle_r	mtp_angle_r	hip_flexion_l	hip_adduction_l	hip_rotation_l	knee_angle_l	ankle_angle_l	subtalar_angle_l	mtp_angle_l
     30.48000000	     -8.87882789	      1.26417308	     -8.17989404	     -0.05762593	      1.23491980	      0.01489989	      7.64185444	     -3.27274788	      8.51789556	     19.55504588	      6.45601848	     -2.00190410	    -15.93796140	      0.18243250	     -5.73390624	      0.00000000	     -8.93469477	     -1.36315739	     -2.24067274	    -29.81552206	      4.05135963	      9.05142890	      0.00000000
     30.49000000	     -8.71984633	      1.29609605	     -8.19657704	     -0.05698664	      1.23538861	      0.01567265	      7.79851416	     -3.81239912	      8.25415994	     18.92567436	      7.24028705	     -1.77817098	    -16.82313474	      1.07171181	     -5.75673805	      0.00000000	     -8.05860527	     -2.27807208	     -2.85152908	    -33.03163664	      2.60857416	      9.89327927	      0.00000000
     30.50000000	     -8.57339287	      1.30134441	     -8.17711864	     -0.05637941	      1.23591769	      0.01635401	      7.90769705	     -4.24435850	      7.93176949	     18.29066402	      7.89963790	     -1.65545779	    -17.59305703	      2.00254183	     -5.59462826	      0.00000000	     -6.99595545	     -3.10051091	     -3.33832206	    -36.36964553	      1.07238705	     10.62880696	      0.00000000
     30.51000000	     -8.45526413	      1.29091002	     -8.21042331	     -0.05585344	      1.23631437	      0.01706339	      8.06155651	     -4.53583766	      7.67236123	     17.57703197	      8.41027727	     -1.60419940	    -18.28220958	      2.96525636	     -5.27691556	      0.00000000	     -5.82567429	     -3.78227199	     -3.80772988	    -39.81553488	     -0.55705463	     10.76311906	      0.00000000
     30.52000000	     -8.38179183	      1.26078966	     -8.19859412	     -0.05545852	      1.23656984	      0.01771676	      8.19904356	     -4.73834979	      7.38349434	     16.88203021	      8.83544115	     -1.57291892	    -18.87033433	      3.94465601	     -4.99448602	      0.00000000	     -4.39139486	     -4.37569782	     -4.01359353	    -43.48823381	     -2.15320044	     10.88235188	      0.00000000
     30.53000000	     -8.35497400	      1.20142107	     -8.16841521	     -0.05514498	      1.23676225	      0.01838984	      8.39227313	     -4.83129458	      7.12110368	     16.10946803	      9.18459413	     -1.48840851	    -19.32266523	      4.88145585	     -4.84879532	      0.00000000	     -2.82587684	     -4.86202599	     -4.07562903	    -47.23923467	     -3.87202552	     10.62364036	      0.00000000
     30.54000000	     -8.35636448	      1.12261833	     -8.05538147	     -0.05489691	      1.23702972	      0.01904837	      8.66953222	     -4.88545093	      6.84687226	     15.22631757	      9.51313715	     -1.36040031	    -19.69838107	      5.75483974	     -4.85290116	      0.00000000	     -1.26012111	     -5.31500834	     -4.09026315	    -50.91313557	     -5.47508895	     10.10645199	      0.00000000
     30.55000000	     -8.43447136	      1.03194953	     -7.86024625	     -0.05471464	      1.23703839	      0.01967032	      9.04105593	     -4.93080090	      6.46804223	     14.32380801	      9.86998311	     -1.04952075	    -20.07627618	      6.64421843	     -4.96003441	      0.00000000	      0.30790062	     -5.79242082	     -4.24104745	    -54.39241202	     -6.57468254	      9.36489555	      0.00000000
     30.56000000	     -8.51864995	      0.94349612	     -7.74198588	     -0.05476926	      1.23687861	      0.02018414	      9.47250704	     -4.97744429	      6.23007629	     13.36451107	     10.21778783	     -0.76246018	    -20.38878126	      7.44102040	     -5.14551605	      0.00000000	      1.77649401	     -6.25097385	     -4.40196961	    -57.56462667	     -6.91868067	      7.82176662	      0.00000000
